<?xml version="1.0" encoding="utf-8"?>
<!-- Generator: Adobe Illustrator 26.1.0, SVG Export Plug-In . SVG Version: 6.00 Build 0)  -->
<svg version="1.1" id="Layer_1" xmlns="http://www.w3.org/2000/svg" xmlns:xlink="http://www.w3.org/1999/xlink" x="0px" y="0px"
	 viewBox="0 0 64 64" style="enable-background:new 0 0 64 64;" xml:space="preserve">
<g id="Text-files">
	<path d="M58.8,14.7C58.8,14.7,58.8,14.7,58.8,14.7c-0.1,0-0.1,0-0.2,0v-4.2c0-2.8-2.3-5-5.1-5H19.1c-2.8,0-5.1,2.3-5.1,5v46.8
		c0,2.8,2.3,5,5.1,5h6v0.2c0.3,0,0.7,0,1.1,0c0.1,0,0.1,0,0.2,0c0.2,0,0.3,0,0.5,0c0.1,0,0.2,0,0.3,0v-0.2h26.4c2.8,0,5.1-2.3,5.1-5
		V16.6c0,0,0.1,0,0.1,0C58.6,16,58.6,15.3,58.8,14.7z M56.6,57.4c0,1.6-1.4,3-3.1,3H19.1c-1.7,0-3.1-1.3-3.1-3V10.5
		c0-1.6,1.4-3,3.1-3h34.4c1.7,0,3.1,1.3,3.1,3V57.4z"/>
	<path d="M47.4,18.7H25.1c-0.6,0-1,0.5-1,1c0,0.6,0.5,1,1,1h22.3c0.6,0,1-0.5,1-1C48.5,19.2,48,18.7,47.4,18.7z"/>
	<path d="M47.4,26.9H25.1c-0.6,0-1,0.5-1,1c0,0.6,0.5,1,1,1h22.3c0.6,0,1-0.5,1-1C48.5,27.3,48,26.9,47.4,26.9z"/>
	<path d="M47.4,35H25.1c-0.6,0-1,0.5-1,1s0.5,1,1,1h22.3c0.6,0,1-0.5,1-1S48,35,47.4,35z"/>
	<path d="M37.3,43.1H25.1c-0.6,0-1,0.5-1,1s0.5,1,1,1h12.2c0.6,0,1-0.5,1-1S37.8,43.1,37.3,43.1z"/>
</g>
</svg>
